<?xml version="1.0" standalone="no"?>
<!DOCTYPE svg PUBLIC "-//W3C//DTD SVG 20010904//EN"
 "http://www.w3.org/TR/2001/REC-SVG-20010904/DTD/svg10.dtd">
<svg version="1.0" xmlns="http://www.w3.org/2000/svg"
 width="400.000000pt" height="400.000000pt" viewBox="0 0 400.000000 400.000000"
 preserveAspectRatio="xMidYMid meet">

<g transform="translate(0.000000,400.000000) scale(0.100000,-0.100000)"
fill="#000000" stroke="none">
<path d="M2585 3813 c-121 -14 -222 -27 -225 -30 -3 -2 2 -10 11 -17 9 -6 66
-57 125 -112 60 -55 177 -162 259 -238 83 -76 151 -144 153 -150 2 -9 -26 -16
-95 -25 -466 -54 -436 -52 -457 -33 -53 45 -523 477 -539 495 -17 20 -19 20
-165 3 -81 -10 -193 -22 -249 -29 -57 -6 -103 -14 -103 -18 0 -4 15 -19 33
-35 95 -80 527 -477 527 -485 0 -5 -3 -9 -7 -9 -5 0 -126 -14 -271 -31 l-263
-30 -97 88 c-53 48 -176 161 -274 251 l-177 163 -58 -30 c-67 -33 -163 -103
-212 -154 l-33 -35 43 -39 c151 -134 305 -276 311 -287 6 -10 -36 -18 -185
-36 -245 -29 -269 -30 -296 -6 -21 19 -21 19 -21 0 0 -43 6 -44 264 -46 l249
-3 -252 -287 c-200 -228 -257 -287 -274 -285 l-22 2 -3 -260 c-1 -143 2 -496
7 -785 10 -580 13 -611 77 -748 103 -225 279 -362 535 -419 65 -14 193 -17
1014 -20 1148 -5 1205 -2 1382 82 194 91 336 260 392 466 36 129 41 274 40
1134 0 646 -3 826 -12 811 -12 -19 -46 -59 -165 -194 l-63 -72 -275 0 c-161 0
-274 4 -272 9 2 5 41 53 88 107 307 352 386 440 399 451 13 10 -36 12 -234 12
l-250 0 -145 -166 c-80 -91 -194 -222 -253 -290 l-109 -123 -274 0 c-151 0
-274 2 -274 5 0 3 113 133 250 290 l251 285 -248 0 -248 0 -95 -108 c-52 -60
-167 -190 -255 -290 l-160 -182 -272 0 c-150 0 -273 2 -273 5 0 3 113 134 250
290 138 156 250 287 250 289 0 3 -73 7 -162 8 l-163 3 145 17 c80 10 363 42
630 72 267 30 577 66 690 80 113 14 270 33 350 41 80 8 244 26 365 40 121 15
261 31 310 36 123 15 139 23 143 77 3 43 3 43 -20 28 -13 -8 -65 -19 -117 -26
-77 -9 -95 -8 -105 3 -6 8 -121 114 -256 237 -135 122 -257 235 -271 251 -30
34 -10 34 -294 2z m1110 -1533 c3 -5 1 -10 -4 -10 -6 0 -11 5 -11 10 0 6 2 10
4 10 3 0 8 -4 11 -10z m5 -102 c0 -4 -4 -8 -9 -8 -6 0 -12 4 -15 8 -3 5 1 9 9
9 8 0 15 -4 15 -9z m-1315 -47 c240 -7 269 -13 284 -54 6 -15 0 -31 -21 -61
-15 -23 -43 -62 -60 -88 -18 -25 -50 -68 -71 -95 -153 -196 -182 -242 -191
-298 -6 -37 -4 -42 21 -56 64 -38 193 -31 513 27 80 14 152 27 160 28 8 2 29
6 45 9 17 4 45 9 64 12 19 3 38 8 42 10 4 3 45 8 90 11 46 3 87 8 91 10 8 5
63 -22 83 -41 43 -40 64 -203 65 -492 0 -274 -36 -389 -165 -519 -75 -76 -128
-108 -240 -145 l-70 -22 -915 -8 c-571 -5 -956 -4 -1024 2 -118 10 -228 42
-305 87 -73 43 -165 141 -200 214 -65 137 -64 129 -68 822 -2 346 -2 635 1
643 4 11 146 13 823 12 450 0 922 -4 1048 -8z m1315 -280 c0 -164 -3 -211 -14
-220 -11 -9 -13 -6 -11 14 2 14 -2 28 -7 32 -7 3 -8 1 -4 -5 4 -7 2 -12 -4
-12 -6 0 -8 -5 -4 -12 4 -7 3 -8 -4 -4 -7 4 -12 15 -13 24 -1 11 -4 8 -9 -8
-7 -23 -8 -23 -9 -3 -1 17 -6 20 -23 16 -22 -5 -22 -5 -4 9 18 14 18 15 -8 22
-15 4 -31 4 -36 1 -6 -4 -10 61 -10 172 1 159 2 176 15 159 13 -17 15 -18 15
-3 0 9 5 17 10 17 6 0 10 -6 10 -12 0 -10 2 -10 8 0 5 7 16 10 25 7 9 -4 24
-2 34 4 42 24 43 21 43 -198z m-126 -166 c-4 -8 -11 -12 -16 -9 -6 4 -5 10 3
15 19 12 19 11 13 -6z"/>
</g>
</svg>
